<?xml version="1.0" encoding="utf-8"?>
<!-- Generator: Adobe Illustrator 15.0.0, SVG Export Plug-In . SVG Version: 6.00 Build 0)  -->
<!DOCTYPE svg PUBLIC "-//W3C//DTD SVG 1.1//EN" "http://www.w3.org/Graphics/SVG/1.1/DTD/svg11.dtd">
<svg version="1.1" id="Layer_1" xmlns="http://www.w3.org/2000/svg" xmlns:xlink="http://www.w3.org/1999/xlink" x="0px" y="0px"
	 width="11371.123px" height="2213.063px" viewBox="60.356 5661.468 11371.123 2213.063"
	 enable-background="new 60.356 5661.468 11371.123 2213.063" xml:space="preserve">
<g>
	<g>
		<path fill="#ED2B2F" d="M760.489,6574.859v583.443c0,48.285,4.022,80.477,12.071,96.57c4.022,8.047,16.094,16.095,36.213,20.119
			c20.119,8.047,60.356,16.095,120.713,20.117c60.355,4.024,144.854,8.049,249.473,8.049v24.143H60.356v-24.143
			c88.522,0,160.95-4.023,217.282-8.049c56.333-4.022,96.57-12.07,116.689-20.117c20.118-8.049,32.188-16.097,36.213-20.119
			c8.048-12.071,12.071-44.262,12.071-96.57V5826.441c0-48.285-4.023-76.451-12.071-92.545
			c-4.022-8.049-12.069-12.072-32.188-20.119c-48.285-20.119-164.975-28.166-337.996-28.166v-24.144h1005.938
			c205.212,0,366.161,48.285,486.874,140.831c112.665,88.521,168.998,205.211,168.998,350.066
			c0,96.569-44.262,189.115-128.761,269.59c-108.642,100.595-253.496,148.879-434.565,148.879H760.489V6574.859z M760.489,6550.718
			h261.544c144.854,0,245.447-36.214,301.781-112.665c48.285-64.38,72.428-164.975,72.428-305.807
			c0-148.877-32.19-257.52-96.57-333.971c-64.381-76.452-160.949-112.665-297.758-112.665H877.178
			c-36.214,0-64.38,4.022-80.475,8.047c-16.096,4.024-28.166,16.097-32.189,32.19c0,16.095-4.023,48.285-4.023,100.594
			L760.489,6550.718L760.489,6550.718z"/>
		<path fill="#ED2B2F" d="M2015.898,6796.166c0,185.093,20.119,321.9,64.381,402.375c44.262,84.499,112.665,124.736,201.188,124.736
			c96.57,0,177.045-32.189,249.473-96.569c88.522-76.452,132.784-185.093,132.784-317.877h20.118
			c0,128.761-40.237,237.401-124.736,317.877c-84.498,84.498-193.14,124.735-329.947,124.735
			c-116.688,0-221.307-44.262-313.853-132.783c-112.665-104.617-168.997-237.401-168.997-406.398
			c0-181.068,56.332-329.948,164.973-442.613c96.57-96.569,205.213-148.879,325.926-148.879c112.665,0,205.211,32.19,277.639,96.57
			c108.643,96.57,164.975,253.496,164.975,474.803H2015.9v4.023H2015.898z M2458.512,6768c0-168.997-16.095-293.732-44.261-382.256
			c-28.167-88.523-76.451-132.784-144.854-132.784c-92.547,0-160.95,40.237-197.164,124.735
			c-40.237,84.5-56.332,213.26-56.332,390.305H2458.512z"/>
		<path fill="#ED2B2F" d="M3235.096,6695.572v511.017c0,36.214,4.024,56.333,8.049,68.403c4.022,4.023,12.07,12.071,24.143,16.096
			s36.214,8.048,68.403,12.07c32.189,4.023,64.38,4.023,88.521,4.023v24.143h-659.895v-24.143c36.214,0,76.45,0,112.665-4.023
			c36.214-4.022,68.402-12.07,100.594-20.119c12.071-8.047,16.095-32.188,16.095-76.451v-788.654c0-16.096,0-32.189,0-48.285
			s-4.022-28.166-12.071-36.214l-16.095-24.144c-16.095-12.07-84.499-20.117-197.164-20.117v-24.144l466.755-40.237v329.947
			c12.071-72.428,32.19-140.831,68.404-197.164c48.284-80.475,100.594-120.712,152.902-128.76
			c52.309-4.023,88.521-8.048,104.617-8.048c108.642,0,193.141,32.19,257.521,100.595c52.31,56.332,80.476,120.713,80.476,197.164
			v688.062c0,36.214,4.023,56.333,8.048,68.403c4.022,4.023,12.071,12.071,24.144,16.096c12.071,4.024,40.236,8.048,76.45,12.07
			c36.214,4.023,72.429,4.023,104.617,4.023v24.143h-663.918v-24.143c28.166,0,60.354,0,96.569-4.023
			c36.214-4.022,68.402-12.07,96.57-20.119c12.07-8.047,16.095-32.188,16.095-76.451v-659.896
			c0-84.498-8.048-144.854-20.118-189.116c-24.143-72.427-64.38-108.641-124.736-108.641c-80.476,0-144.854,48.283-193.141,148.877
			C3279.357,6474.268,3251.191,6574.859,3235.096,6695.572z"/>
		<path fill="#ED2B2F" d="M4896.904,6780.07v120.713c0,40.237,0,76.451,4.024,112.666c0,120.711-12.071,205.211-40.237,249.473
			c-36.215,60.355-112.666,92.546-221.308,92.546c-104.617,0-181.067-24.144-229.354-76.451
			c-48.285-48.285-72.428-120.713-72.428-213.259V6329.41h-205.211v-24.143c140.832-36.214,249.473-116.688,321.9-245.448
			c56.332-104.618,88.521-221.308,88.521-350.065h44.263v547.229h297.758v76.451h-297.758v704.157
			c0,92.546,4.022,152.901,12.071,181.067c16.095,64.381,56.332,96.57,112.664,96.57c68.403,0,116.688-36.214,136.81-112.665
			c16.094-52.31,24.143-148.879,24.143-293.733v-124.735h24.143V6780.07z"/>
		<path fill="#ED2B2F" d="M5629.229,6578.884v-152.901c0-68.404-12.071-116.688-32.189-140.832
			c-20.119-24.143-68.402-36.213-140.831-36.213c-60.356,0-112.666,12.07-156.926,36.213c-44.263,24.144-72.429,52.31-88.522,92.547
			c8.047,0,16.096-4.023,24.143-4.023c32.189,0,60.357,12.07,80.477,40.236c20.117,24.144,32.189,56.332,32.189,88.522
			c0,36.214-12.072,68.403-40.238,92.546c-24.143,24.143-56.332,36.214-92.545,36.214c-24.145,0-44.263-8.048-60.356-16.095
			c-52.31-32.19-76.451-72.429-76.451-124.736c0-24.143,4.022-52.309,16.097-84.499c24.142-68.403,84.498-116.688,181.067-148.879
			c68.403-24.144,140.831-32.188,209.233-32.188c128.76,0,225.33,24.143,289.711,72.427c60.355,44.263,88.521,96.569,88.521,160.95
			v571.373c0,104.617,4.023,168.997,8.048,193.141c12.071,60.355,44.261,88.522,92.546,88.522c44.262,0,76.451-24.144,92.547-68.403
			c16.096-48.285,24.143-112.666,24.143-201.188c0-24.144,0-48.285,0-72.429c0-24.143,0-48.285,0-76.451v-24.143h32.189v112.665
			c0,36.214,0,72.429,4.025,104.617c0,100.595-12.072,168.998-36.215,201.188c-32.189,44.261-96.569,64.379-189.115,64.379
			c-76.451,0-128.76-12.07-164.976-40.237c-44.263-32.188-72.429-84.498-84.499-156.926
			c-36.214,84.499-92.546,140.831-164.975,168.997c-44.262,16.096-100.594,24.143-173.021,24.143s-136.808-16.095-189.116-52.309
			c-72.428-48.285-112.665-116.688-112.665-213.259c0-92.546,36.213-173.021,108.642-237.401
			c72.428-60.355,160.949-96.569,261.543-104.617c104.619-8.047,173.021-24.143,209.235-40.237
			C5613.133,6687.525,5629.229,6643.264,5629.229,6578.884z M5625.205,7049.663V6703.62c-20.119,28.166-52.309,44.261-92.547,52.31
			c-40.236,8.047-80.475,12.07-116.688,16.095c-48.285,12.071-88.522,40.237-120.713,84.499
			c-36.215,52.309-52.31,124.736-52.31,217.282c0,100.595,8.048,168.998,28.166,205.212c20.119,36.214,52.31,52.309,92.546,52.309
			c64.381,0,124.736-28.166,177.045-80.476C5597.039,7190.494,5625.205,7126.113,5625.205,7049.663z"/>
		<path fill="#ED2B2F" d="M6405.812,6892.736c-56.332-28.166-96.57-64.381-128.76-108.643
			c-32.19-44.262-48.285-100.594-48.285-164.975c0-108.641,48.285-205.211,148.879-281.662
			c92.545-72.428,193.14-104.617,301.78-104.617c32.188,0,68.403,4.023,104.617,12.07c36.214,8.048,68.403,20.119,100.595,32.189
			v-60.355c0-80.475,16.096-132.783,44.262-160.95c28.166-24.144,72.428-36.214,128.76-36.214c24.143,0,48.285,8.048,68.404,28.166
			c20.117,16.096,28.166,40.238,28.166,68.404c0,60.355-28.166,92.545-84.5,92.545c-60.355,0-88.521-28.166-88.521-84.498
			c0-12.07,0-20.119,4.023-28.166s8.047-16.096,12.071-28.166c-36.214,4.022-56.333,20.119-68.403,44.262
			c-12.071,24.143-16.096,60.355-16.096,100.594c0,36.215,4.023,64.381,4.023,80.476c68.403,32.19,120.713,76.451,160.949,128.761
			c40.238,52.31,56.332,116.688,56.332,185.092c0,104.619-48.283,193.142-148.877,257.521
			c-88.522,60.355-189.117,92.546-301.781,92.546c-80.477,0-152.902-12.071-225.331-40.237c-60.354,0-108.642,8.049-144.854,28.166
			c-48.285,24.144-72.428,68.404-72.428,128.762c0,24.143,20.118,44.262,64.38,60.355c40.237,16.096,120.713,24.143,241.426,24.143
			h148.879c152.901,0,269.59,20.119,350.065,60.355c100.594,52.31,148.879,136.809,148.879,257.521
			c0,128.76-44.263,225.33-136.809,293.732c-92.547,68.404-209.234,104.617-354.09,104.617
			c-173.021,0-313.854-28.166-418.471-88.521c-104.617-56.333-156.926-124.735-156.926-197.164c0-48.285,28.166-88.522,84.5-120.713
			c40.235-24.144,100.594-44.263,185.092-68.403c-76.451-28.166-132.783-56.332-168.998-88.522
			c-48.283-44.261-76.451-100.595-76.451-168.997c0-72.428,20.119-132.784,64.381-177.045
			C6264.98,6912.855,6325.337,6892.736,6405.812,6892.736z M6715.641,7850.391c116.689,0,205.213-24.144,269.592-72.429
			c64.381-48.285,96.569-108.642,96.569-177.045c0-84.499-28.166-140.831-80.476-168.998
			c-52.31-28.166-148.879-44.261-289.709-44.261c-160.951,0-273.615,20.117-333.973,56.332
			c-48.285,32.189-76.451,84.498-76.451,160.949c0,72.429,20.118,128.762,60.355,164.975
			C6429.955,7822.223,6546.645,7850.391,6715.641,7850.391z M6900.734,6594.979c0-108.641-16.097-193.14-44.263-245.447
			c-32.19-64.38-92.547-96.57-177.045-96.57c-76.451,0-132.784,32.19-168.998,92.547c-36.213,60.355-52.31,144.854-52.31,249.473
			c0,120.713,16.096,209.234,44.263,261.544c28.166,52.31,88.521,76.451,177.045,76.451c80.476,0,132.783-28.166,168.997-80.476
			C6884.639,6796.166,6900.734,6711.668,6900.734,6594.979z"/>
		<path fill="#ED2B2F" d="M7540.51,6397.814c0-36.213-4.023-56.332-12.07-64.381c-12.071-16.095-24.144-28.166-32.19-32.188
			c-32.188-8.048-100.595-12.071-213.258-12.071v-24.143l498.944-40.236v329.946c8.047-72.429,32.189-136.808,72.428-201.188
			c56.332-84.498,128.76-128.76,213.259-128.76c32.188,0,68.403,12.071,104.617,32.189c36.214,20.119,64.381,48.285,76.451,80.477
			c12.072,32.188,20.119,60.355,20.119,88.521c0,68.402-28.166,116.688-84.499,140.831c-12.07,8.048-32.189,12.071-56.332,12.071
			c-36.214,0-64.38-12.071-88.521-36.215c-24.143-24.143-36.215-60.355-36.215-108.641c0-32.189,12.071-60.355,36.215-92.547
			c24.143-32.189,52.309-44.262,80.475-36.214c-12.07-36.214-40.236-56.332-92.547-56.332c-48.284,0-100.594,36.214-148.878,108.642
			c-64.38,92.547-96.569,213.258-96.569,362.138v482.851c0,36.215,4.023,56.334,8.047,68.403
			c4.023,4.024,12.071,12.071,24.144,16.097c36.214,12.07,112.666,20.117,225.33,20.117v24.144H7282.99v-24.144
			c48.285,0,96.57,0,136.807-4.022c40.238-4.022,76.451-12.071,104.619-20.118c12.07-8.048,16.095-32.189,16.095-76.452
			L7540.51,6397.814L7540.51,6397.814z"/>
		<path fill="#ED2B2F" d="M8972.965,6578.884v-152.901c0-68.404-12.07-116.688-32.189-140.832
			c-20.119-24.143-68.404-36.213-140.83-36.213c-60.357,0-112.666,12.07-156.926,36.213c-44.262,24.144-72.43,52.31-88.523,92.547
			c8.047,0,16.094-4.023,24.143-4.023c32.189,0,60.357,12.07,80.475,40.236c20.119,24.144,32.191,56.332,32.191,88.522
			c0,36.214-12.072,68.403-40.238,92.546c-24.143,24.143-56.332,36.214-92.547,36.214c-24.143,0-44.262-8.048-60.355-16.095
			c-52.31-32.19-76.451-72.429-76.451-124.736c0-24.143,4.023-52.309,16.095-84.499c24.143-68.403,84.499-116.688,181.067-148.879
			c68.404-24.144,140.832-32.188,209.236-32.188c128.76,0,225.33,24.143,289.709,72.427c60.357,44.263,88.523,96.569,88.523,160.95
			v571.373c0,104.617,4.023,168.997,8.047,193.141c12.07,60.355,44.262,88.522,92.547,88.522c44.262,0,76.451-24.144,92.547-68.403
			c16.094-48.285,24.141-112.666,24.141-201.188c0-24.144,0-48.285,0-72.429c0-24.143,0-48.285,0-76.451v-24.143h32.191v112.665
			c0,36.214,0,72.429,4.023,104.617c0,100.595-12.07,168.998-36.213,201.188c-32.189,44.261-96.568,64.379-189.115,64.379
			c-76.453,0-128.762-12.07-164.975-40.237c-44.262-32.188-72.428-84.498-84.498-156.926
			c-36.215,84.499-92.547,140.831-164.977,168.997c-44.262,16.096-100.594,24.143-173.02,24.143
			c-72.43,0-136.809-16.095-189.117-52.309c-72.428-48.285-112.665-116.688-112.665-213.259
			c0-92.546,36.214-173.021,108.642-237.401c72.428-60.355,160.949-96.569,261.543-104.617
			c104.617-8.047,173.023-24.143,209.234-40.237C8956.871,6687.525,8972.965,6643.264,8972.965,6578.884z M8964.918,7049.663
			V6703.62c-20.117,28.166-52.309,44.261-92.547,52.31c-40.236,8.047-80.475,12.07-116.688,16.095
			c-48.285,12.071-88.523,40.237-120.715,84.499c-36.211,52.309-52.309,124.736-52.309,217.282
			c0,100.595,8.047,168.998,28.168,205.212c20.117,36.214,52.309,52.309,92.547,52.309c64.379,0,124.734-28.166,177.043-80.476
			C8940.775,7190.494,8964.918,7126.113,8964.918,7049.663z"/>
		<path fill="#ED2B2F" d="M10602.586,6538.646c12.07-80.477,32.188-140.832,60.355-189.117
			c44.262-72.428,100.594-116.688,177.045-124.735c12.07,0,24.143,0,40.236-4.024c16.096,0,24.145-4.022,32.191-4.022
			c104.617,0,193.139,32.19,253.496,100.595c52.309,56.332,80.473,120.713,80.473,197.164v688.062
			c0,32.188,4.025,56.332,8.049,64.38c4.025,8.047,12.072,12.07,24.143,20.118c12.07,4.024,36.215,8.048,68.406,12.071
			c32.188,4.022,60.355,4.022,84.498,4.022v24.144h-611.611v-24.144c40.238,0,72.428,0,96.57-4.022
			c24.143-4.023,48.285-12.071,72.426-24.144c12.07-8.047,16.096-32.188,16.096-72.427v-655.872
			c0-80.476-8.049-144.854-20.119-189.116c-24.143-72.427-64.379-108.641-120.711-108.641c-60.357,0-112.666,28.166-152.902,84.498
			c-44.262,64.379-80.477,181.068-104.619,350.065v519.063c0,36.215,4.025,56.332,8.049,68.403
			c4.023,4.022,12.07,8.048,24.143,16.097c12.07,4.022,32.189,8.047,64.381,12.069c32.188,4.024,60.355,8.048,88.523,8.048v24.143
			h-615.637v-24.143c64.383,0,116.689-4.023,152.904-20.118l20.119-8.048c12.07-8.048,16.094-32.189,16.094-76.451v-655.872
			c0-84.498-8.047-144.854-20.117-189.116c-24.145-72.427-64.383-108.641-124.738-108.641c-76.449,0-136.807,48.283-181.068,148.877
			c-28.166,68.404-52.309,168.998-68.404,297.758v511.018c0,36.214,4.023,56.333,8.047,68.404
			c4.025,4.022,12.072,12.07,24.145,16.095c12.07,4.022,36.213,8.048,68.402,12.071c32.191,4.022,60.357,4.022,84.5,4.022v24.144
			h-659.895v-24.144c36.211,0,72.426,0,108.641-4.022c36.213-4.023,68.402-12.071,100.594-20.119
			c12.07-8.047,16.094-32.189,16.094-76.451v-784.633c0-16.095,0-32.188,0-48.283c0-16.097-4.023-28.168-12.07-36.215
			c-12.072-16.096-24.145-28.166-32.191-32.189c-24.143-8.048-84.498-12.07-177.043-12.07v-24.144l466.754-44.261v329.946
			c12.07-84.499,32.191-148.879,56.332-197.164c40.238-80.476,100.594-124.735,177.045-132.783c16.096,0,32.189-4.024,44.262-4.024
			s24.143,0,28.166,0c112.664,0,193.141,32.19,253.496,92.547C10574.418,6373.673,10602.586,6446.1,10602.586,6538.646z"/>
	</g>
</g>
</svg>
